<mxfile host="65bd71144e">
    <diagram id="ZFZOIvAwZLAkr2o62xY6" name="Page-1">
        <mxGraphModel dx="1228" dy="574" grid="0" gridSize="10" guides="1" tooltips="1" connect="1" arrows="1" fold="1" page="1" pageScale="1" pageWidth="1100" pageHeight="850" background="#333333" math="0" shadow="0">
            <root>
                <mxCell id="0"/>
                <mxCell id="1" parent="0"/>
                <mxCell id="15" style="edgeStyle=none;html=1;labelBackgroundColor=none;strokeColor=#FFFFFF;strokeWidth=2;entryX=0;entryY=0.5;entryDx=0;entryDy=0;exitX=1;exitY=0.5;exitDx=0;exitDy=0;" parent="1" source="2" target="7" edge="1">
                    <mxGeometry relative="1" as="geometry">
                        <mxPoint x="468.6153846153845" y="275.0000000000001" as="targetPoint"/>
                        <mxPoint x="216" y="178.5" as="sourcePoint"/>
                    </mxGeometry>
                </mxCell>
                <mxCell id="2" value="Adapter,jar" style="rounded=0;fillColor=none;strokeColor=#FFFFFF;fontColor=#FFFFFF;fontSize=18;align=left;verticalAlign=top;" parent="1" vertex="1">
                    <mxGeometry x="21" y="82" width="150" height="55" as="geometry"/>
                </mxCell>
                <mxCell id="7" value="User,jar" style="rounded=0;fillColor=none;strokeColor=#FFFFFF;fontColor=#FFFFFF;fontSize=18;align=left;verticalAlign=top;" parent="1" vertex="1">
                    <mxGeometry x="264" y="83" width="150" height="55" as="geometry"/>
                </mxCell>
                <mxCell id="16" value="Product,jar" style="rounded=0;fillColor=none;strokeColor=#FFFFFF;fontColor=#FFFFFF;fontSize=18;align=left;verticalAlign=top;" parent="1" vertex="1">
                    <mxGeometry x="21" y="223" width="150" height="55" as="geometry"/>
                </mxCell>
                <mxCell id="26" style="edgeStyle=none;html=1;labelBackgroundColor=none;strokeColor=#FFFFFF;strokeWidth=2;entryX=0.5;entryY=0;entryDx=0;entryDy=0;exitX=0.5;exitY=1;exitDx=0;exitDy=0;" parent="1" source="2" target="16" edge="1">
                    <mxGeometry relative="1" as="geometry">
                        <mxPoint x="593" y="286" as="targetPoint"/>
                        <mxPoint x="137" y="392" as="sourcePoint"/>
                    </mxGeometry>
                </mxCell>
                <mxCell id="27" value="common.jar" style="rounded=0;fillColor=none;strokeColor=#FFFFFF;fontColor=#FFFFFF;fontSize=18;align=left;verticalAlign=top;" parent="1" vertex="1">
                    <mxGeometry x="264" y="223" width="150" height="55" as="geometry"/>
                </mxCell>
                <mxCell id="38" style="edgeStyle=none;html=1;labelBackgroundColor=none;strokeColor=#FFFFFF;strokeWidth=2;entryX=0.5;entryY=0;entryDx=0;entryDy=0;exitX=0.5;exitY=1;exitDx=0;exitDy=0;" parent="1" source="7" target="27" edge="1">
                    <mxGeometry relative="1" as="geometry">
                        <mxPoint x="849" y="730" as="targetPoint"/>
                        <mxPoint x="695" y="578" as="sourcePoint"/>
                    </mxGeometry>
                </mxCell>
                <mxCell id="40" style="edgeStyle=none;html=1;labelBackgroundColor=none;strokeColor=#FFFFFF;strokeWidth=2;entryX=0;entryY=0;entryDx=0;entryDy=0;exitX=1;exitY=1;exitDx=0;exitDy=0;" parent="1" source="2" target="27" edge="1">
                    <mxGeometry relative="1" as="geometry">
                        <mxPoint x="465" y="711" as="targetPoint"/>
                        <mxPoint x="460" y="509" as="sourcePoint"/>
                    </mxGeometry>
                </mxCell>
                <mxCell id="46" style="edgeStyle=none;html=1;labelBackgroundColor=none;strokeColor=#FFFFFF;strokeWidth=3;entryX=0.5;entryY=0;entryDx=0;entryDy=0;exitX=0.5;exitY=1;exitDx=0;exitDy=0;" edge="1" parent="1" source="47" target="48">
                    <mxGeometry relative="1" as="geometry">
                        <mxPoint x="983.6153846153845" y="483.0000000000001" as="targetPoint"/>
                        <mxPoint x="731" y="386.5" as="sourcePoint"/>
                    </mxGeometry>
                </mxCell>
                <mxCell id="61" style="edgeStyle=none;html=1;exitX=0;exitY=0.5;exitDx=0;exitDy=0;entryX=0.75;entryY=0;entryDx=0;entryDy=0;strokeColor=#FFFFFF;strokeWidth=2;" edge="1" parent="1" source="47" target="51">
                    <mxGeometry relative="1" as="geometry">
                        <Array as="points">
                            <mxPoint x="812" y="198"/>
                        </Array>
                    </mxGeometry>
                </mxCell>
                <mxCell id="47" value="UserInputAdapter ,jar" style="rounded=0;fillColor=none;strokeColor=#FFFFFF;fontColor=#FFFFFF;fontSize=18;align=left;verticalAlign=top;whiteSpace=wrap;" vertex="1" parent="1">
                    <mxGeometry x="926" y="173" width="150" height="55" as="geometry"/>
                </mxCell>
                <mxCell id="60" style="edgeStyle=none;html=1;exitX=0;exitY=0.5;exitDx=0;exitDy=0;entryX=1;entryY=0.5;entryDx=0;entryDy=0;strokeColor=#FFFFFF;strokeWidth=2;" edge="1" parent="1" source="48" target="51">
                    <mxGeometry relative="1" as="geometry"/>
                </mxCell>
                <mxCell id="48" value="UserDomain,jar" style="rounded=0;fillColor=none;strokeColor=#FFFFFF;fontColor=#FFFFFF;fontSize=18;align=left;verticalAlign=top;" vertex="1" parent="1">
                    <mxGeometry x="926" y="282" width="150" height="55" as="geometry"/>
                </mxCell>
                <mxCell id="58" style="edgeStyle=none;html=1;exitX=1;exitY=0.5;exitDx=0;exitDy=0;entryX=0;entryY=0.5;entryDx=0;entryDy=0;strokeColor=#FFFFFF;strokeWidth=2;" edge="1" parent="1" source="49" target="51">
                    <mxGeometry relative="1" as="geometry"/>
                </mxCell>
                <mxCell id="49" value="ProductDomain,jar" style="rounded=0;fillColor=none;strokeColor=#FFFFFF;fontColor=#FFFFFF;fontSize=18;align=left;verticalAlign=top;" vertex="1" parent="1">
                    <mxGeometry x="472" y="281" width="166" height="55" as="geometry"/>
                </mxCell>
                <mxCell id="50" style="edgeStyle=none;html=1;labelBackgroundColor=none;strokeColor=#FFFFFF;strokeWidth=2;entryX=0.5;entryY=0;entryDx=0;entryDy=0;exitX=0.5;exitY=1;exitDx=0;exitDy=0;" edge="1" parent="1" source="54" target="49">
                    <mxGeometry relative="1" as="geometry">
                        <mxPoint x="1049" y="363" as="targetPoint"/>
                        <mxPoint x="593" y="469" as="sourcePoint"/>
                    </mxGeometry>
                </mxCell>
                <mxCell id="51" value="common.jar" style="rounded=0;fillColor=none;strokeColor=#FFFFFF;fontColor=#FFFFFF;fontSize=18;align=left;verticalAlign=top;" vertex="1" parent="1">
                    <mxGeometry x="699" y="280" width="150" height="55" as="geometry"/>
                </mxCell>
                <mxCell id="57" style="edgeStyle=none;html=1;exitX=1;exitY=0.5;exitDx=0;exitDy=0;entryX=0.25;entryY=0;entryDx=0;entryDy=0;strokeColor=#FFFFFF;strokeWidth=2;" edge="1" parent="1" source="54" target="51">
                    <mxGeometry relative="1" as="geometry">
                        <Array as="points">
                            <mxPoint x="733" y="197"/>
                        </Array>
                    </mxGeometry>
                </mxCell>
                <mxCell id="54" value="ProductInputAdapter ,jar" style="rounded=0;fillColor=none;strokeColor=#FFFFFF;fontColor=#FFFFFF;fontSize=18;align=left;verticalAlign=top;whiteSpace=wrap;" vertex="1" parent="1">
                    <mxGeometry x="472" y="169" width="170" height="55" as="geometry"/>
                </mxCell>
                <mxCell id="62" style="edgeStyle=none;html=1;labelBackgroundColor=none;strokeColor=#FFFFFF;strokeWidth=5;exitX=0.5;exitY=1;exitDx=0;exitDy=0;endArrow=none;endFill=0;dashed=1;" edge="1" parent="1">
                    <mxGeometry relative="1" as="geometry">
                        <mxPoint x="447" y="594" as="targetPoint"/>
                        <mxPoint x="447" y="8" as="sourcePoint"/>
                    </mxGeometry>
                </mxCell>
                <mxCell id="63" value="Current" style="text;strokeColor=none;fillColor=none;fontSize=24;fontStyle=1;verticalAlign=middle;align=center;fontColor=#FFFFFF;" vertex="1" parent="1">
                    <mxGeometry x="129" y="7" width="100" height="40" as="geometry"/>
                </mxCell>
                <mxCell id="65" value="Next Step" style="text;strokeColor=none;fillColor=none;fontSize=24;fontStyle=1;verticalAlign=middle;align=center;fontColor=#FFFFFF;" vertex="1" parent="1">
                    <mxGeometry x="623" y="7" width="275" height="49.2" as="geometry"/>
                </mxCell>
                <mxCell id="80" value="" style="edgeStyle=none;entryX=0.5;entryY=0;entryDx=0;entryDy=0;exitX=0;exitY=0.5;exitDx=0;exitDy=0;labelBackgroundColor=none;strokeColor=#FFFFFF;" edge="1" parent="1" source="79" target="54">
                    <mxGeometry relative="1" as="geometry">
                        <mxPoint x="557" y="189" as="targetPoint"/>
                        <Array as="points">
                            <mxPoint x="561" y="108"/>
                        </Array>
                    </mxGeometry>
                </mxCell>
                <mxCell id="81" value="" style="edgeStyle=none;entryX=0.5;entryY=0;entryDx=0;entryDy=0;labelBackgroundColor=none;strokeColor=#FFFFFF;" edge="1" parent="1" source="79" target="47">
                    <mxGeometry relative="1" as="geometry">
                        <mxPoint x="1001" y="192.9999999999999" as="targetPoint"/>
                        <Array as="points">
                            <mxPoint x="1001" y="108"/>
                        </Array>
                    </mxGeometry>
                </mxCell>
                <mxCell id="79" value="MainAndConfiguration.jar" style="rounded=0;fillColor=none;strokeColor=#FFFFFF;fontColor=#FFFFFF;fontSize=18;align=left;verticalAlign=top;" vertex="1" parent="1">
                    <mxGeometry x="660" y="80" width="228" height="55" as="geometry"/>
                </mxCell>
                <mxCell id="84" style="edgeStyle=none;html=1;entryX=0.5;entryY=1;entryDx=0;entryDy=0;labelBackgroundColor=none;strokeColor=#FFFFFF;strokeWidth=2;" edge="1" parent="1" source="83" target="49">
                    <mxGeometry relative="1" as="geometry"/>
                </mxCell>
                <mxCell id="87" style="edgeStyle=none;html=1;exitX=1;exitY=0.5;exitDx=0;exitDy=0;strokeColor=#FFFFFF;strokeWidth=2;" edge="1" parent="1" source="83">
                    <mxGeometry relative="1" as="geometry">
                        <mxPoint x="738" y="334" as="targetPoint"/>
                        <Array as="points">
                            <mxPoint x="738" y="426"/>
                        </Array>
                    </mxGeometry>
                </mxCell>
                <mxCell id="83" value="ProductOutputAdapter ,jar" style="rounded=0;fillColor=none;strokeColor=#FFFFFF;fontColor=#FFFFFF;fontSize=18;align=left;verticalAlign=top;whiteSpace=wrap;" vertex="1" parent="1">
                    <mxGeometry x="462" y="398" width="186" height="55" as="geometry"/>
                </mxCell>
                <mxCell id="85" value="UserOutputAdapter ,jar" style="rounded=0;fillColor=none;strokeColor=#FFFFFF;fontColor=#FFFFFF;fontSize=18;align=left;verticalAlign=top;whiteSpace=wrap;" vertex="1" parent="1">
                    <mxGeometry x="919" y="390" width="164" height="55" as="geometry"/>
                </mxCell>
                <mxCell id="86" style="edgeStyle=none;html=1;exitX=0.5;exitY=0;exitDx=0;exitDy=0;entryX=0.5;entryY=1;entryDx=0;entryDy=0;strokeColor=#FFFFFF;strokeWidth=2;" edge="1" parent="1" source="85" target="48">
                    <mxGeometry relative="1" as="geometry">
                        <mxPoint x="936" y="352" as="sourcePoint"/>
                        <mxPoint x="859" y="325" as="targetPoint"/>
                    </mxGeometry>
                </mxCell>
                <mxCell id="88" style="edgeStyle=none;html=1;exitX=0;exitY=0.5;exitDx=0;exitDy=0;strokeColor=#FFFFFF;strokeWidth=2;" edge="1" parent="1" source="85">
                    <mxGeometry relative="1" as="geometry">
                        <mxPoint x="812" y="336" as="targetPoint"/>
                        <Array as="points">
                            <mxPoint x="816" y="419"/>
                        </Array>
                    </mxGeometry>
                </mxCell>
            </root>
        </mxGraphModel>
    </diagram>
</mxfile>